<svg xmlns="http://www.w3.org/2000/svg" version="1.1" xmlns:xlink="http://www.w3.org/1999/xlink" xmlns:svgjs="http://svgjs.dev/svgjs"
     width="100"
     height="50" viewBox="0 0 1500 1012"><g transform="matrix(1,0,0,1,-0.6427289557153699,0.4097165991905172)"><svg viewBox="0 0 366 247" data-background-color="#ffffff" preserveAspectRatio="xMidYMid meet" height="1012" width="1500" xmlns="http://www.w3.org/2000/svg" xmlns:xlink="http://www.w3.org/1999/xlink"><g id="tight-bounds" transform="matrix(1,0,0,1,0.15682586519454844,-0.10000000000005116)"><svg viewBox="0 0 365.6863482696109 247.2" height="247.2" width="365.6863482696109"><g><svg viewBox="0 0 397.4975999999999 268.7040606928931" height="247.2" width="365.6863482696109"><g><rect width="397.4975999999999" height="4.671716067923201" x="0" y="144.96809527990115" fill="#ff0000" opacity="1" stroke-width="0" stroke="transparent" fill-opacity="1" class="rect-yte-0" data-fill-palette-color="primary" rx="1%" id="yte-0" data-palette-color="#ff0000"></rect></g><g><rect width="397.4975999999999" height="4.671716067923201" x="0" y="155.7546229550537" fill="#ff0000" opacity="1" stroke-width="0" stroke="transparent" fill-opacity="1" class="rect-yte-1" data-fill-palette-color="primary" rx="1%" id="yte-1" data-palette-color="#ff0000"></rect></g><g transform="matrix(1,0,0,1,0.9887999999999693,172.65596223743555)"><svg viewBox="0 0 395.52 96.04809845545765" height="96.04809845545765" width="395.52"><g id="textblocktransform"><svg viewBox="0 0 395.52 96.04809845545765" height="96.04809845545765" width="395.52" id="textblock"><g><svg viewBox="0 0 395.52 51.803754784301" height="51.803754784301" width="395.52"><g transform="matrix(1,0,0,1,0,0)"><svg width="395.52" viewBox="2.98 -37.84 377.78 49.290000000000006" height="51.803754784301" data-palette-color="#ff0000"><path d="M26.54-17.5L26.54 0 20.19 0 20.19-17.5Q20.19-18.75 19.53-19.4 18.87-20.04 17.58-20.04L17.58-20.04 9.33-20.04 9.33 0 2.98 0 2.98-23.24Q2.98-23.9 3.22-24.48 3.47-25.05 3.91-25.48 4.35-25.9 4.93-26.15 5.52-26.39 6.18-26.39L6.18-26.39 17.63-26.39Q18.95-26.39 20.46-25.93 21.97-25.46 23.34-24.44L23.34-24.44 23.34-26.39 31.93-26.39Q32.84-26.39 33.84-26.18 34.84-25.98 35.83-25.54 36.82-25.1 37.72-24.4 38.62-23.71 39.31-22.72 39.99-21.73 40.41-20.43 40.82-19.14 40.82-17.5L40.82-17.5 40.82 0 34.47 0 34.47-17.5Q34.47-18.75 33.85-19.4 33.23-20.04 31.93-20.04L31.93-20.04 26.22-20.04Q26.54-18.87 26.54-17.5L26.54-17.5ZM73.9-17.65L73.9-8.74Q73.9-7.42 73.44-5.9 72.97-4.37 71.93-3.06 70.9-1.76 69.22-0.88 67.55 0 65.16 0L65.16 0 53.71 0Q52.39 0 50.86-0.46 49.34-0.93 48.03-1.97 46.73-3 45.85-4.68 44.97-6.35 44.97-8.74L44.97-8.74Q44.97-10.06 45.43-11.6 45.9-13.13 46.93-14.44 47.97-15.75 49.64-16.63 51.32-17.5 53.71-17.5L53.71-17.5 65.16-17.5 65.16-11.45 53.71-11.45Q52.41-11.45 51.71-10.66 51-9.86 51-8.69L51-8.69Q51-7.45 51.82-6.75 52.63-6.05 53.76-6.05L53.76-6.05 65.16-6.05Q66.45-6.05 67.16-6.84 67.87-7.62 67.87-8.79L67.87-8.79 67.87-17.65Q67.87-18.9 67.1-19.63 66.33-20.36 65.16-20.36L65.16-20.36 51.22-20.36 51.22-26.39 65.16-26.39Q66.48-26.39 68-25.93 69.53-25.46 70.83-24.43 72.14-23.39 73.02-21.72 73.9-20.04 73.9-17.65L73.9-17.65ZM102.68-26.39L102.68-20.04 88.33-20.04 88.33-26.39 102.68-26.39ZM102.68-37.84L102.68-31.49 88.37-31.49Q87.08-31.49 86.42-30.85 85.76-30.2 85.76-28.96L85.76-28.96 85.76 0 79.41 0 79.41-28.96Q79.41-30.59 79.83-31.88 80.24-33.18 80.94-34.17 81.64-35.16 82.54-35.85 83.44-36.55 84.43-36.99 85.42-37.43 86.42-37.63 87.42-37.84 88.33-37.84L88.33-37.84 102.68-37.84ZM113.27-37.55L113.27-31.81 106.93-31.81 106.93-37.55 113.27-37.55ZM113.27-26.39L113.27 0 106.93 0 106.93-26.39 113.27-26.39ZM146.6-17.65L146.6-8.74Q146.6-7.42 146.13-5.9 145.67-4.37 144.63-3.06 143.59-1.76 141.92-0.88 140.25 0 137.86 0L137.86 0 126.41 0Q125.09 0 123.56-0.46 122.04-0.93 120.73-1.97 119.42-3 118.54-4.68 117.67-6.35 117.67-8.74L117.67-8.74Q117.67-10.06 118.13-11.6 118.59-13.13 119.63-14.44 120.67-15.75 122.34-16.63 124.01-17.5 126.41-17.5L126.41-17.5 137.86-17.5 137.86-11.45 126.41-11.45Q125.11-11.45 124.4-10.66 123.7-9.86 123.7-8.69L123.7-8.69Q123.7-7.45 124.51-6.75 125.33-6.05 126.45-6.05L126.45-6.05 137.86-6.05Q139.15-6.05 139.86-6.84 140.57-7.62 140.57-8.79L140.57-8.79 140.57-17.65Q140.57-18.9 139.8-19.63 139.03-20.36 137.86-20.36L137.86-20.36 123.92-20.36 123.92-26.39 137.86-26.39Q139.17-26.39 140.7-25.93 142.23-25.46 143.53-24.43 144.84-23.39 145.72-21.72 146.6-20.04 146.6-17.65L146.6-17.65ZM191.64-26.39L191.64-20.04 177.28-20.04 177.28-26.39 191.64-26.39ZM191.64-37.84L191.64-31.49 177.33-31.49Q176.03-31.49 175.38-30.85 174.72-30.2 174.72-28.96L174.72-28.96 174.72 0 168.37 0 168.37-28.96Q168.37-30.59 168.78-31.88 169.2-33.18 169.89-34.17 170.59-35.16 171.49-35.85 172.4-36.55 173.39-36.99 174.37-37.43 175.38-37.63 176.38-37.84 177.28-37.84L177.28-37.84 191.64-37.84ZM224.08-17.65L224.08-17.65Q224.08-16.33 223.62-14.81 223.15-13.28 222.11-11.98 221.08-10.67 219.4-9.79 217.73-8.91 215.34-8.91L215.34-8.91 203.89-8.91 203.89-14.94 215.34-14.94Q216.63-14.94 217.34-15.73 218.05-16.53 218.05-17.7L218.05-17.7Q218.05-18.95 217.26-19.65 216.46-20.36 215.34-20.36L215.34-20.36 203.89-20.36Q202.59-20.36 201.89-19.57 201.18-18.77 201.18-17.6L201.18-17.6 201.18-8.74Q201.18-7.47 201.97-6.76 202.77-6.05 203.94-6.05L203.94-6.05 215.34-6.05 215.34 0 203.89 0Q202.57 0 201.04-0.46 199.52-0.93 198.21-1.97 196.91-3 196.03-4.68 195.15-6.35 195.15-8.74L195.15-8.74 195.15-17.65Q195.15-18.97 195.61-20.5 196.08-22.02 197.11-23.33 198.15-24.63 199.82-25.51 201.5-26.39 203.89-26.39L203.89-26.39 215.34-26.39Q216.66-26.39 218.18-25.93 219.71-25.46 221.02-24.43 222.32-23.39 223.2-21.72 224.08-20.04 224.08-17.65ZM257.6-14.65L257.6 0 251.25 0 251.25-14.65Q251.25-15.89 250.82-16.88 250.4-17.87 249.66-18.58 248.93-19.29 247.94-19.67 246.95-20.04 245.81-20.04L245.81-20.04 234.7-20.04 234.7 0 228.35 0 228.35-23.24Q228.35-23.9 228.59-24.48 228.84-25.05 229.28-25.48 229.72-25.9 230.3-26.15 230.89-26.39 231.55-26.39L231.55-26.39 245.85-26.39Q247.05-26.39 248.38-26.12 249.71-25.85 251.02-25.26 252.32-24.66 253.51-23.74 254.69-22.83 255.61-21.52 256.52-20.21 257.06-18.51 257.6-16.8 257.6-14.65L257.6-14.65ZM286.38-26.39L286.38-20.04 275.29-20.04 275.29 0 268.87 0 268.87-20.04 260.62-20.04 260.62-26.39 268.87-26.39 268.87-35.01 275.29-35.01 275.29-26.39 286.38-26.39ZM316.28-17.65L316.28-8.74Q316.28-7.42 315.82-5.9 315.36-4.37 314.32-3.06 313.28-1.76 311.61-0.88 309.94 0 307.54 0L307.54 0 296.09 0Q294.77 0 293.25-0.46 291.72-0.93 290.42-1.97 289.11-3 288.23-4.68 287.35-6.35 287.35-8.74L287.35-8.74Q287.35-10.06 287.82-11.6 288.28-13.13 289.32-14.44 290.36-15.75 292.03-16.63 293.7-17.5 296.09-17.5L296.09-17.5 307.54-17.5 307.54-11.45 296.09-11.45Q294.8-11.45 294.09-10.66 293.38-9.86 293.38-8.69L293.38-8.69Q293.38-7.45 294.2-6.75 295.02-6.05 296.14-6.05L296.14-6.05 307.54-6.05Q308.84-6.05 309.55-6.84 310.25-7.62 310.25-8.79L310.25-8.79 310.25-17.65Q310.25-18.9 309.48-19.63 308.72-20.36 307.54-20.36L307.54-20.36 293.6-20.36 293.6-26.39 307.54-26.39Q308.86-26.39 310.39-25.93 311.91-25.46 313.22-24.43 314.53-23.39 315.4-21.72 316.28-20.04 316.28-17.65L316.28-17.65ZM347.21-8.91L347.21-8.91Q347.21-7.28 346.8-5.97 346.38-4.66 345.7-3.67 345.02-2.69 344.11-1.99 343.21-1.29 342.22-0.85 341.23-0.42 340.22-0.21 339.21 0 338.3 0L338.3 0 321.12 0 321.12-6.35 338.25-6.35Q339.55-6.35 340.21-7.01 340.87-7.67 340.87-8.91L340.87-8.91Q340.74-11.45 338.3-11.45L338.3-11.45 328.46-11.45Q326.36-11.45 324.9-12.18 323.43-12.92 322.52-14.01 321.6-15.11 321.2-16.38 320.8-17.65 320.8-18.75L320.8-18.75Q320.8-20.87 321.55-22.33 322.31-23.78 323.46-24.68 324.61-25.59 325.95-25.99 327.29-26.39 328.46-26.39L328.46-26.39 344.06-26.39 344.06-20.04 328.51-20.04Q328.02-20.04 327.74-19.93 327.46-19.82 327.33-19.64 327.19-19.46 327.17-19.25 327.15-19.04 327.15-18.85L327.15-18.85Q327.17-18.46 327.29-18.24 327.41-18.02 327.6-17.92 327.78-17.82 328.01-17.81 328.24-17.8 328.46-17.8L328.46-17.8 338.3-17.8Q340.74-17.8 342.45-16.92 344.16-16.04 345.21-14.71 346.26-13.38 346.74-11.82 347.21-10.25 347.21-8.91ZM380.76-26.39L380.76 2.54Q380.76 4.17 380.34 5.48 379.93 6.79 379.24 7.78 378.56 8.76 377.66 9.46 376.75 10.16 375.76 10.6 374.77 11.04 373.77 11.24 372.77 11.45 371.87 11.45L371.87 11.45 360.42 11.45 360.42 5.1 371.87 5.1Q373.14 5.1 373.77 4.44 374.41 3.78 374.41 2.54L374.41 2.54 374.41-26.39 380.76-26.39ZM371.87-6.35L371.87 0 360.42 0Q359.05 0 357.5-0.46 355.95-0.93 354.61-1.99 353.27-3.05 352.39-4.75 351.51-6.45 351.51-8.91L351.51-8.91 351.51-26.39 357.86-26.39 357.86-8.91Q357.86-7.67 358.51-7.01 359.17-6.35 360.47-6.35L360.47-6.35 371.87-6.35Z" opacity="1" transform="matrix(1,0,0,1,0,0)" fill="#ff0000" class="wordmark-text-0" data-fill-palette-color="primary" id="text-0"></path></svg></g></svg></g><g transform="matrix(1,0,0,1,95.04145730356764,64.03337799875965)"><svg viewBox="0 0 205.4370853928647 32.014720456698015" height="32.014720456698015" width="205.4370853928647"><g transform="matrix(1,0,0,1,0,0)"><svg width="205.4370853928647" viewBox="1.75 -33.6 276.62 43.05" height="32.014720456698015" data-palette-color="#ca3433"><path d="M5 0L5-20.85 1.75-20.85 2.15-23.4 5-23.4 5-27.7Q5-29.5 6.15-30.98 7.3-32.45 8.75-33.25L8.75-33.25Q10.3-33.6 11.85-33.6L11.85-33.6Q14.05-33.6 16.05-32.65L16.05-32.65 15.25-30.15Q14.25-30.55 13.48-30.7 12.7-30.85 11.65-30.85L11.65-30.85Q9.95-30.85 8.45-30.4L8.45-30.4Q7.95-29.05 7.95-27.25L7.95-27.25 7.95-23.4 13.55-23.4 13.15-20.85 7.95-20.85 7.95 0 5 0ZM29.3 0.45Q19.2 0.45 19.2-11.55L19.2-11.55Q19.2-17.3 21.77-20.55 24.35-23.8 29.3-23.8L29.3-23.8Q33.4-23.8 35.6-21.35 37.8-18.9 37.8-14.55L37.8-14.55Q37.8-14.05 37.7-12.95L37.7-12.95 35.15-10.4 22.15-10.5Q22.25-6.35 24.02-4.28 25.8-2.2 29.45-2.2L29.45-2.2Q31.65-2.2 33.2-2.68 34.75-3.15 36.4-4.15L36.4-4.15 37.4-1.8Q35.55-0.7 33.72-0.13 31.9 0.45 29.3 0.45L29.3 0.45ZM22.1-12.75L34.7-12.95Q35-14.15 35-15.35L35-15.35Q35-18.05 33.5-19.6 32-21.15 29.1-21.15L29.1-21.15Q25.4-21.15 23.85-19.1 22.3-17.05 22.1-12.75L22.1-12.75ZM44.2 0L44.2-23.4 46.75-23.4 47-19.9 47.34-19.9Q51.25-23.8 56-23.8L56-23.8Q59.14-23.8 60.67-22.53 62.2-21.25 62.2-18.3L62.2-18.3 62.2 0 59.2 0 59.2-20.5Q57.64-21.05 55.45-21.05L55.45-21.05Q52.95-21.05 50.82-20.13 48.7-19.2 47.2-17.6L47.2-17.6 47.2 0 44.2 0ZM78.09 0.3Q76.24 0.3 74.89-0.05L74.89-0.05Q71.44-1.95 71.44-4.7L71.44-4.7 71.44-20.85 67.34-20.85 67.74-23.4 71.44-23.4 71.44-29.8 74.34-29.8 74.34-23.4 82.14-23.4 81.74-20.85 74.34-20.85 74.34-5.35Q74.34-4.05 74.79-2.85L74.79-2.85Q76.19-2.4 77.59-2.4L77.59-2.4Q78.49-2.4 79.67-2.68 80.84-2.95 81.79-3.35L81.79-3.35 82.64-0.85Q81.79-0.4 80.49-0.05 79.19 0.3 78.09 0.3L78.09 0.3ZM93.24 0.45Q89.99 0.45 88.27-1.13 86.54-2.7 86.54-5.4L86.54-5.4Q86.54-9.15 89.29-11.03 92.04-12.9 96.99-12.9L96.99-12.9Q98.64-12.9 100.84-12.7L100.84-12.7 100.84-16.1Q100.84-19.1 99.64-20.23 98.44-21.35 95.44-21.35L95.44-21.35Q93.34-21.35 91.59-21.1L91.59-21.1 91.09-17.5 88.84-17.5Q88.29-19.05 88.29-20.55L88.29-20.55 88.29-21.5Q89.89-22.4 92.22-23.1 94.54-23.8 96.64-23.8L96.64-23.8Q100.09-23.8 101.99-21.93 103.89-20.05 103.89-16.55L103.89-16.55 103.89 0 101.29 0 101.09-3.3 100.69-3.3Q99.39-1.55 97.47-0.55 95.54 0.45 93.24 0.45L93.24 0.45ZM93.74-2Q95.94-2 97.84-3.05 99.74-4.1 100.99-5.95L100.99-5.95 100.99-10.4Q98.74-10.8 95.99-10.8L95.99-10.8Q92.69-10.8 90.84-10.25L90.84-10.25Q90.24-9.1 89.97-8.08 89.69-7.05 89.69-5.85L89.69-5.85Q89.69-3.7 90.72-2.85 91.74-2 93.74-2L93.74-2ZM117.69 0.45Q113.34 0.45 109.99-1.25L109.99-1.25 110.94-3.7Q114.24-2.1 118.04-2.1L118.04-2.1Q120.64-2.1 122.49-2.7L122.49-2.7Q123.09-4.15 123.09-5.9L123.09-5.9Q123.09-7.35 122.69-8.13 122.29-8.9 121.26-9.4 120.24-9.9 118.14-10.35L118.14-10.35Q114.14-11.25 112.16-12.7 110.19-14.15 110.19-17.05L110.19-17.05Q110.19-19.9 112.26-21.85 114.34-23.8 118.54-23.8L118.54-23.8Q122.29-23.8 124.94-22.35L124.94-22.35 124.94-21.1Q124.94-19.55 124.34-17.9L124.34-17.9 122.34-17.9 121.99-21.1Q120.34-21.35 118.34-21.35L118.34-21.35Q115.49-21.35 114.29-20.48 113.09-19.6 113.09-17.6L113.09-17.6Q113.09-16.3 113.59-15.5 114.09-14.7 115.31-14.13 116.54-13.55 118.84-13L118.84-13Q121.44-12.4 122.96-11.65 124.49-10.9 125.24-9.68 125.99-8.45 125.99-6.45L125.99-6.45Q125.99-3.55 124.01-1.55 122.04 0.45 117.69 0.45L117.69 0.45ZM135.49 9.45Q133.09 9.45 131.39 8.6L131.39 8.6 131.39 7.35Q131.39 5.75 131.84 4.4L131.84 4.4 134.04 4.4 134.04 6.75Q134.94 6.9 136.14 6.9L136.14 6.9Q136.94 6.9 138.34 6.7L138.34 6.7Q139.44 4.05 141.29-1.1L141.29-1.1 137.94-1.1Q135.34-7.45 133.59-12.53 131.84-17.6 130.29-23.3L130.29-23.3 133.29-23.6Q136.04-13.2 139.69-3.75L139.69-3.75 142.19-3.75Q145.34-13.2 147.74-23.6L147.74-23.6 150.79-23.3Q148.79-15.2 146.39-7.63 143.99-0.05 141.59 5.7L141.59 5.7Q140.79 7.55 139.14 8.5 137.49 9.45 135.49 9.45L135.49 9.45ZM171.88 0L171.88-23.4 174.38-23.4 174.68-20 175.03-20Q178.93-23.8 183.33-23.8L183.33-23.8Q186.08-23.8 187.51-22.93 188.93-22.05 189.28-20L189.28-20 189.63-20Q193.43-23.8 197.98-23.8L197.98-23.8Q201.18-23.8 202.68-22.6 204.18-21.4 204.18-18.3L204.18-18.3 204.18 0 201.13 0 201.13-20.5Q199.48-21.05 197.48-21.05L197.48-21.05Q195.23-21.05 193.16-20.23 191.08-19.4 189.53-17.85L189.53-17.85 189.53 0 186.53 0 186.53-20.5Q184.88-21.05 182.88-21.05L182.88-21.05Q180.58-21.05 178.51-20.2 176.43-19.35 174.88-17.8L174.88-17.8 174.88 0 171.88 0ZM216.93 0.45Q213.68 0.45 211.95-1.13 210.23-2.7 210.23-5.4L210.23-5.4Q210.23-9.15 212.98-11.03 215.73-12.9 220.68-12.9L220.68-12.9Q222.33-12.9 224.53-12.7L224.53-12.7 224.53-16.1Q224.53-19.1 223.33-20.23 222.13-21.35 219.13-21.35L219.13-21.35Q217.03-21.35 215.28-21.1L215.28-21.1 214.78-17.5 212.53-17.5Q211.98-19.05 211.98-20.55L211.98-20.55 211.98-21.5Q213.58-22.4 215.9-23.1 218.23-23.8 220.33-23.8L220.33-23.8Q223.78-23.8 225.68-21.93 227.58-20.05 227.58-16.55L227.58-16.55 227.58 0 224.98 0 224.78-3.3 224.38-3.3Q223.08-1.55 221.15-0.55 219.23 0.45 216.93 0.45L216.93 0.45ZM217.43-2Q219.63-2 221.53-3.05 223.43-4.1 224.68-5.95L224.68-5.95 224.68-10.4Q222.43-10.8 219.68-10.8L219.68-10.8Q216.38-10.8 214.53-10.25L214.53-10.25Q213.93-9.1 213.65-8.08 213.38-7.05 213.38-5.85L213.38-5.85Q213.38-3.7 214.4-2.85 215.43-2 217.43-2L217.43-2ZM236.23 0L236.23-20.85 232.98-20.85 233.38-23.4 236.23-23.4 236.23-27.7Q236.23-29.5 237.38-30.98 238.53-32.45 239.98-33.25L239.98-33.25Q241.53-33.6 243.08-33.6L243.08-33.6Q245.28-33.6 247.28-32.65L247.28-32.65 246.48-30.15Q245.48-30.55 244.7-30.7 243.93-30.85 242.88-30.85L242.88-30.85Q241.18-30.85 239.68-30.4L239.68-30.4Q239.18-29.05 239.18-27.25L239.18-27.25 239.18-23.4 244.78-23.4 244.38-20.85 239.18-20.85 239.18 0 236.23 0ZM251.67-27.7L251.67-32.35 254.82-32.35 254.82-27.7 251.67-27.7ZM251.72 0L251.72-23.35 254.67-23.35 254.67 0 251.72 0ZM267.72 0.45Q264.47 0.45 262.75-1.13 261.02-2.7 261.02-5.4L261.02-5.4Q261.02-9.15 263.77-11.03 266.52-12.9 271.47-12.9L271.47-12.9Q273.12-12.9 275.32-12.7L275.32-12.7 275.32-16.1Q275.32-19.1 274.12-20.23 272.92-21.35 269.92-21.35L269.92-21.35Q267.82-21.35 266.07-21.1L266.07-21.1 265.57-17.5 263.32-17.5Q262.77-19.05 262.77-20.55L262.77-20.55 262.77-21.5Q264.37-22.4 266.7-23.1 269.02-23.8 271.12-23.8L271.12-23.8Q274.57-23.8 276.47-21.93 278.37-20.05 278.37-16.55L278.37-16.55 278.37 0 275.77 0 275.57-3.3 275.17-3.3Q273.87-1.55 271.95-0.55 270.02 0.45 267.72 0.45L267.72 0.45ZM268.22-2Q270.42-2 272.32-3.05 274.22-4.1 275.47-5.95L275.47-5.95 275.47-10.4Q273.22-10.8 270.47-10.8L270.47-10.8Q267.17-10.8 265.32-10.25L265.32-10.25Q264.72-9.1 264.45-8.08 264.17-7.05 264.17-5.85L264.17-5.85Q264.17-3.7 265.2-2.85 266.22-2 268.22-2L268.22-2Z" opacity="1" transform="matrix(1,0,0,1,0,0)" fill="#ca3433" class="slogan-text-1" data-fill-palette-color="secondary" id="text-1"></path></svg></g></svg></g></svg></g></svg></g><g transform="matrix(1,0,0,1,132.3059022180748,0)"><svg viewBox="0 0 132.8857955638503 132.7384720654425" height="132.7384720654425" width="132.8857955638503"><g><svg xmlns="http://www.w3.org/2000/svg" xmlns:xlink="http://www.w3.org/1999/xlink" version="1.1" x="0" y="0" viewBox="5 5 90.2 90.1" enable-background="new 0 0 100 100" xml:space="preserve" height="132.7384720654425" width="132.8857955638503" class="icon-icon-0" data-fill-palette-color="accent" id="icon-0"><path d="M28.9 43.9L25.4 36.8 32.5 29.7 29 22.6 39.6 12 32.4 5 28.9 8.5 25.3 5 21.8 8.5 25.3 12 7.7 29.7 5 32.4 7.7 36.8H14.8L21.8 51zM26.2 25.3L28 28.8 23.6 33.2 21.8 29.7z" fill="#ed2647" data-fill-palette-color="accent"></path><path d="M74.7 12.4L78.2 8.9 74.7 5.4 71.2 8.9 67.7 5.4 60.6 12.5 71.1 23 67.6 30 74.7 37.1 71.2 44.2 78.3 51.3 85.4 37.2H92.5L95.2 32.8 92.3 30zM76.4 33.6L72 29.2 73.8 25.7 78.2 30.1z" fill="#ed2647" data-fill-palette-color="accent"></path><path d="M65 75C61.1 75 57.7 77.3 56 80.6 54.6 78.7 52.4 77.5 50 77.5S45.3 78.7 44 80.6C42.4 77.3 39 75 35 75 29.9 75 25.7 78.8 25.1 83.8H20V86.3H25.1C25.7 91.2 29.9 95.1 35 95.1 40.5 95.1 45 90.6 45 85.1 45 82.3 47.2 80.1 50 80.1S55 82.3 55 85.1C55 90.6 59.5 95.1 65 95.1 70.1 95.1 74.3 91.3 74.9 86.3H80V83.8H74.9C74.3 78.8 70.1 75 65 75" fill="#ed2647" data-fill-palette-color="accent"></path><polygon points="65,50 35,50 30,65 15,70 15,72.5 85,72.5 85,70 70,65 " fill="#ed2647" data-fill-palette-color="accent"></polygon></svg></g></svg></g><g></g></svg></g><defs></defs></svg><rect width="365.6863482696109" height="247.2" fill="none" stroke="none" visibility="hidden"></rect></g></svg></g></svg>